<svg width="35" height="25" viewBox="0 0 35 25" fill="none" xmlns="http://www.w3.org/2000/svg">
<path d="M32.5 8.75H33.75C34.44 8.75 35 8.19 35 7.5C35 6.81 34.44 6.25 33.75 6.25H30.7075L28.7775 3.03375C27.655 1.1625 25.6013 0 23.4188 0H11.5813C9.39875 0 7.345 1.1625 6.2225 3.03375L4.2925 6.25H1.25C0.56 6.25 0 6.81 0 7.5C0 8.19 0.56 8.75 1.25 8.75H2.5L1.75 9.75C0.62125 11.255 0 13.1187 0 15V21.25C0 23.3175 1.6825 25 3.75 25H6.25C8.3175 25 10 23.3175 10 21.25H25C25 23.3175 26.6825 25 28.75 25H31.25C33.3175 25 35 23.3175 35 21.25V15C35 13.1187 34.3787 11.2537 33.25 9.75L32.5 8.75ZM8.36625 4.32125C9.04 3.19875 10.2713 2.5 11.5813 2.5H23.42C24.73 2.5 25.9613 3.1975 26.635 4.32125L28.315 7.12125L27.4463 7.7C26.4163 8.38625 25.2175 8.75 23.9788 8.75H11.02C9.7825 8.75 8.58375 8.3875 7.55375 7.70125L6.685 7.12125L8.365 4.32L8.36625 4.32125ZM32.5013 21.25C32.5013 21.9387 31.94 22.5 31.2512 22.5H28.7512C28.0625 22.5 27.5012 21.9387 27.5012 21.25V20C27.5012 19.31 26.9412 18.75 26.2512 18.75H8.75C8.06 18.75 7.5 19.31 7.5 20V21.25C7.5 21.9387 6.93875 22.5 6.25 22.5H3.75C3.06125 22.5 2.5 21.9387 2.5 21.25V15C2.5 13.6562 2.94375 12.3238 3.75 11.25L5.29 9.19625L6.1675 9.78125C7.61 10.7425 9.2875 11.25 11.02 11.25H23.9788C25.7125 11.25 27.39 10.7413 28.8325 9.78L29.7087 9.19625L31.2488 11.25C32.055 12.3238 32.4987 13.6562 32.4987 15V21.25H32.5013Z" fill="white"/>
</svg>
